<svg data-icon="logo"
	xmlns="http://www.w3.org/2000/svg"
	viewBox="0 0 604 92">
  <g data-logo="odd">
    <path d="M2 47.31c0 14.76 11.17 25.93 25.88 25.93 14.6 0 25.77-11.17 25.77-25.93 0-14.65-10.95-25.72-25.55-25.72C12.95 21.59 2 32.34 2 47.31zM154.08 72.14h22.39l-4.75-11.09-2.14.07V1.78c-6.75.1-7.38.1-10.12.1h-5.38c-.55 0-3.45 0-7.53-.04l4.78 11.24 2.75-.02v12.1c-3.74-2.23-8.1-3.57-12.93-3.57-.13 0-.25.03-.38.03-.14 0-.25-.03-.38-.03-.82 0-1.59.18-2.38.29-13.18 1.43-22.46 11.56-22.46 25.43 0 13.4 9.08 23.75 21.56 25.55 1.04.19 2.08.37 3.18.37.12 0 .22-.03.34-.03.11 0 .21.03.33.03 4.89 0 9.34-1.38 13.15-3.68-.03.87-.03 1.73-.03 2.59z"/>
    <path d="M95.36 72.14h22.39L113 61.05l-2.14.07V1.78c-6.75.1-7.38.1-10.12.1h-5.38c-.55 0-3.45 0-7.53-.04l4.78 11.24 2.75-.02v12.1c-3.74-2.23-8.1-3.57-12.93-3.57-.13 0-.25.03-.38.03-.14 0-.25-.03-.38-.03-.82 0-1.59.18-2.38.29-13.18 1.43-22.46 11.56-22.46 25.43 0 13.4 9.08 23.75 21.56 25.55 1.04.19 2.08.37 3.18.37.12 0 .22-.03.34-.03.11 0 .21.03.33.03 4.89 0 9.34-1.38 13.15-3.68-.03.87-.03 1.73-.03 2.59z"/>
  </g>
	<g data-logo="books">
		<path d="M250.46 63.19c0 23.32-24.91 26.98-42.12 26.98h-10.87l-.95-.61c.15-.37.1-.81-.13-1.13l2.07-1.73c-.23-.32-1.95-.76-1.79-1.13l-1.07-1.43c.06-.15 3.42-.31 3.42-.47l-2.23-3.53c0-.1 2.16-.2 2.18-.29l-2.53-3.5c.05-.2-1.63-.4-1.68-.6l-.31-2.73c-.11-.37-2.18-.78-1.94-1.06l3.27-1.33c.25-.3-1.83-.75-1.97-1.14l-.73-1.94c-.05-.13-4.39-.26-4.39-.4l-2.63-2.01 1.01-2.82-.96-2.78 1-2.26-1.95-2.48 1.01-3.11-1.95-2.23-.97-2.46 1-1.44.02-2.25 1.01-2.54-.95-3.35-3.11-3.34.02-1.96 1-1.7.02-2.8-3.11-3.34.55-1.61-2.61-2.34-1.53-1.92 3.62-2.18 1.66-2.21-1.49-2.11-.35-2.88.4-1.8-.67-1.38-1.61-1.56.56-2.51h28.95c13.31 0 41.39 1.34 41.39 22.47 0 7.45-5.58 14.29-15.34 17.7v.24c12.81 4.76 17.78 13.07 17.78 21z"/>
		<circle cx="296.64" cy="46.13" r="44.07"/>
		<circle cx="389.13" cy="46.13" r="44.07"/>
		<path d="M438.53 89.63h39.19V64.56l.24-.12 9.47 25.19h43.67l-16.38-47.07 14.69-40.77h-42.59l-8.86 20.59-.24-.13V1.79h-39.19zM534.1 83.23c8.41 4.38 21.33 6.99 32.11 6.99 22.52 0 35.79-11.49 35.79-27.97 0-7.7-2.84-13.75-8.65-18.49-2.94-2.32-6.15-3.85-9.58-5.24-8.48-3.44-6.59-9.6 3.3-6.1 3.17 1.12 6.59 2.49 10.07 4.23V8.57c-7.82-4.03-20.15-6.75-30.57-6.75-21.69 0-34.96 11.73-34.96 28.91 0 8.3 3.08 13.86 7.58 17.89 3.11 2.73 6.63 4.66 10.05 6.06 6.23 2.54 3.82 8.46-3.08 5.67a71.28 71.28 0 0 1-12.07-6.28v29.16h.01z"/>
	</g>
</svg>
